<svg width="40" height="40" viewBox="0 0 40 40" fill="none" xmlns="http://www.w3.org/2000/svg">
<path fill-rule="evenodd" clip-rule="evenodd" d="M19.993 1.61285C15.2746 1.61522 10.7109 3.23247 7.11804 6.17541C3.52513 9.11835 1.13726 13.1951 0.381404 17.6766C-0.374455 22.1582 0.550977 26.7524 2.99224 30.6376C5.43351 34.5229 9.23141 37.4459 13.7068 38.884C14.6942 39.0613 15.0661 38.4691 15.0661 37.9656C15.0661 37.462 15.0463 36.0021 15.0397 34.406C9.51058 35.5619 8.34222 32.148 8.34222 32.148C7.44044 29.9312 6.13714 29.3485 6.13714 29.3485C4.33357 28.164 6.27209 28.1862 6.27209 28.1862C8.26983 28.3224 9.31971 30.1592 9.31971 30.1592C11.0904 33.0822 13.9701 32.2367 15.1023 31.7426C15.28 30.5044 15.7967 29.662 16.3661 29.1838C11.9493 28.7024 7.30879 27.062 7.30879 19.7338C7.28142 17.8333 8.01434 15.9953 9.35591 14.6003C9.15186 14.1189 8.47057 12.1744 9.55008 9.53324C9.55008 9.53324 11.2187 9.02021 15.0167 11.4935C18.2744 10.6363 21.7115 10.6363 24.9692 11.4935C28.7639 9.02021 30.4293 9.53324 30.4293 9.53324C31.5121 12.1681 30.8308 14.1126 30.6267 14.6003C31.9726 15.9956 32.707 17.8367 32.6771 19.7401C32.6771 27.0841 28.0267 28.7024 23.6034 29.1743C24.3143 29.7697 24.9495 30.9319 24.9495 32.718C24.9495 35.2769 24.9264 37.3354 24.9264 37.9656C24.9264 38.4754 25.2852 39.0708 26.2923 38.884C30.7682 37.4457 34.5665 34.5222 37.0077 30.6363C39.4489 26.7503 40.3739 22.1555 39.6172 17.6735C38.8604 13.1916 36.4714 9.11478 32.8773 6.17234C29.2832 3.2299 24.7185 1.61372 19.9995 1.61285H19.993Z" fill="#FAFFFE"/>
<path d="M7.64405 29.0729C7.60126 29.1679 7.44328 29.1965 7.31493 29.1299C7.18657 29.0634 7.09114 28.9399 7.13721 28.8418C7.18329 28.7436 7.33797 28.7183 7.46633 28.7848C7.59469 28.8513 7.69341 28.9779 7.64405 29.0729Z" fill="#FAFFFE"/>
<path d="M8.45043 29.9375C8.38227 29.9705 8.30429 29.9797 8.22985 29.9635C8.1554 29.9474 8.08912 29.9068 8.04233 29.8488C7.91397 29.7158 7.88763 29.5321 7.98636 29.4498C8.0851 29.3674 8.26284 29.4054 8.39119 29.5384C8.51955 29.6714 8.54916 29.8551 8.45043 29.9375Z" fill="#FAFFFE"/>
<path d="M9.23367 31.0363C9.1119 31.1187 8.90454 31.0364 8.78935 30.8717C8.7575 30.8421 8.73217 30.8067 8.71486 30.7675C8.69756 30.7284 8.68863 30.6862 8.68863 30.6437C8.68863 30.6011 8.69756 30.559 8.71486 30.5198C8.73217 30.4806 8.7575 30.4452 8.78935 30.4156C8.91112 30.3365 9.11848 30.4156 9.23367 30.5772C9.34886 30.7387 9.35215 30.954 9.23367 31.0363V31.0363Z" fill="#FAFFFE"/>
<path d="M10.2968 32.1005C10.1882 32.2176 9.96765 32.186 9.78664 32.0276C9.60562 31.8693 9.56283 31.6539 9.67144 31.5399C9.78004 31.4259 10.0006 31.4576 10.1882 31.6128C10.3757 31.7679 10.412 31.9865 10.2968 32.1005V32.1005Z" fill="#FAFFFE"/>
<path d="M11.7876 32.7212C11.7382 32.87 11.5144 32.9365 11.2906 32.8732C11.0668 32.8099 10.9187 32.6325 10.9615 32.4805C11.0043 32.3285 11.2314 32.2588 11.4585 32.3285C11.6856 32.3982 11.8304 32.566 11.7876 32.7212Z" fill="#FAFFFE"/>
<path d="M13.4136 32.8289C13.4136 32.984 13.2293 33.117 12.9923 33.1202C12.7554 33.1234 12.5612 32.9967 12.5612 32.8415C12.5612 32.6863 12.7455 32.5533 12.9825 32.5502C13.2194 32.547 13.4136 32.6705 13.4136 32.8289Z" fill="#FAFFFE"/>
<path d="M14.9274 32.585C14.957 32.7402 14.7924 32.9017 14.5555 32.9397C14.3185 32.9777 14.1112 32.8859 14.0815 32.7339C14.0519 32.5819 14.2231 32.4172 14.4534 32.376C14.6838 32.3348 14.8978 32.4298 14.9274 32.585Z" fill="#FAFFFE"/>
</svg>
