<svg width="40" height="40" viewBox="0 0 40 40" fill="none" xmlns="http://www.w3.org/2000/svg">
<g clip-path="url(#clip0_281_162)">
<path fill-rule="evenodd" clip-rule="evenodd" d="M39.2 20.4399C39.2 19.0675 39.0727 17.7478 38.8364 16.481H20V23.9678H30.7636C30.3 26.3871 28.8909 28.437 26.7727 29.8094V34.6657H33.2364C37.0182 31.2962 39.2 26.3343 39.2 20.4399Z" fill="#4285F4"/>
<path fill-rule="evenodd" clip-rule="evenodd" d="M20 39.3548C25.4 39.3548 29.9273 37.6217 33.2364 34.6656L26.7727 29.8093C24.9818 30.9706 22.6909 31.6568 20 31.6568C14.7909 31.6568 10.3818 28.2521 8.80909 23.6774H2.12727V28.692C5.41818 35.0175 12.1818 39.3548 20 39.3548Z" fill="#34A853"/>
<path fill-rule="evenodd" clip-rule="evenodd" d="M8.80909 23.6774C8.40909 22.5161 8.18182 21.2757 8.18182 20C8.18182 18.7243 8.40909 17.4839 8.80909 16.3226V11.3079H2.12727C0.772727 13.9208 0 16.8768 0 20C0 23.1232 0.772727 26.0792 2.12727 28.6921L8.80909 23.6774Z" fill="#FBBC05"/>
<path fill-rule="evenodd" clip-rule="evenodd" d="M20 8.34309C22.9364 8.34309 25.5727 9.31963 27.6455 11.2375L33.3818 5.6862C29.9182 2.56303 25.3909 0.645142 20 0.645142C12.1818 0.645142 5.41818 4.98239 2.12727 11.3079L8.80909 16.3226C10.3818 11.7478 14.7909 8.34309 20 8.34309Z" fill="#EA4335"/>
</g>
<defs>
<clipPath id="clip0_281_162">
<rect width="40" height="38.7097" fill="white" transform="translate(0 0.645142)"/>
</clipPath>
</defs>
</svg>
