<svg xmlns="http://www.w3.org/2000/svg" version="1.1" xmlns:xlink="http://www.w3.org/1999/xlink" xmlns:svgjs="http://svgjs.dev/svgjs" viewBox="0 0 800 800" opacity="0.81"><defs><symbol id="bbburst-shape-1" viewBox="0 0 194 167"><path d="m97 0 96.129 166.5H.871L97 0Z"></path></symbol><symbol id="bbburst-shape-4" viewBox="0 0 149 143"><path d="M71.647 2.781c.898-2.764 4.808-2.764 5.706 0l15.445 47.534a3 3 0 0 0 2.853 2.073h49.98c2.906 0 4.115 3.719 1.764 5.427L106.96 87.193a2.999 2.999 0 0 0-1.09 3.354l15.445 47.534c.898 2.764-2.266 5.062-4.617 3.354l-40.435-29.378a3 3 0 0 0-3.526 0l-40.435 29.378c-2.351 1.708-5.515-.59-4.617-3.354L43.13 90.547a3 3 0 0 0-1.09-3.354L1.605 57.815c-2.35-1.708-1.142-5.427 1.764-5.427h49.98a3 3 0 0 0 2.853-2.073L71.647 2.781Z"></path></symbol><symbol id="bbburst-shape-6" viewBox="0 0 133 116"><path d="M59.7487 10.2513c-13.6683-13.66839-35.8291-13.66839-49.4974 0-13.66839 13.6683-13.66839 35.8291 0 49.4974l49.4974-49.4974ZM66.5 66.5 41.7513 91.2487 66.5 115.997l24.7487-24.7483L66.5 66.5Zm56.249-6.7513c13.668-13.6683 13.668-35.8291 0-49.4974-13.669-13.66839-35.8294-13.66839-49.4977 0l49.4977 49.4974Zm-112.4977 0 31.5 31.5 49.4974-49.4974-31.5-31.5-49.4974 49.4974Zm80.9974 31.5 31.5003-31.5-49.4977-49.4974-31.5 31.5 49.4974 49.4974Z"></path></symbol><symbol id="bbburst-shape-8" viewBox="0 0 87 168"><path d="m12 12 31.2546 18.0749c16.4102 9.4902 20.014 31.6325 7.4603 45.8369L36.3296 92.1884c-12.5684 14.2206-8.9394 36.3916 7.5068 45.8636L75 156" stroke-width="14" stroke-linecap="round" stroke-linejoin="round"></path></symbol><symbol id="bbburst-shape-10" viewBox="0 0 145 145"><circle cx="72.5" cy="72.5" r="61.5" fill="none" stroke-width="22"></circle></symbol><symbol id="bbburst-shape-12" viewBox="0 0 170 151"><path d="M69.3728 54.2122 85 10.0031l15.627 44.2091c1.413 3.9958 5.19 6.6672 9.428 6.6673h49.312l-39.149 26.1447c-3.803 2.5401-5.399 7.3367-3.875 11.6488l15.179 42.94-40.9683-27.36c-3.3621-2.245-7.7453-2.245-11.1074 0l-40.9682 27.36 15.1785-42.94c1.5243-4.3121-.0712-9.1087-3.8746-11.6488L10.6333 60.8795h49.3112c4.2381-.0001 8.0159-2.6715 9.4283-6.6673Z" stroke-width="12"></path></symbol></defs><use xlink:href="#bbburst-shape-4" width="10.816540381003007" opacity="0.857818328538141" transform="matrix(0.9317644895949772,-0.36306326711719494,0.36306326711719494,0.9317644895949772,205.70671815326816,-17.153156020769643)" fill="#2c2891"></use><use xlink:href="#bbburst-shape-1" width="42.32750868067015" opacity="0.2545432687617539" transform="matrix(0.8365000818831874,-0.5479667991853346,0.5479667991853346,0.8365000818831874,426.5683503675665,-130.64885783831429)" fill="#00a19d"></use><use xlink:href="#bbburst-shape-12" width="21.148677249475046" opacity="0.6847520577674467" transform="matrix(0.995261304951016,0.09723648938130593,-0.09723648938130593,0.995261304951016,524.5175719670042,-103.48354813106477)" fill="none" stroke="#ffa6d5"></use><use xlink:href="#bbburst-shape-1" width="43.5419148988328" opacity="0.24195994696307854" transform="matrix(0.8512404800605466,-0.5247758046121125,0.5247758046121125,0.8512404800605466,365.923486881847,351.324008247029)" fill="#ffa6d5"></use><use xlink:href="#bbburst-shape-8" width="29.83786974102624" opacity="0.4303283898864111" transform="matrix(0.9786847058668207,0.2053685625950932,-0.2053685625950932,0.9786847058668207,464.99368518049357,-250.87727948961236)" fill="none" stroke="#00a19d"></use><use xlink:href="#bbburst-shape-8" width="28.10093344038002" opacity="0.4351048708152109" transform="matrix(0.9218415125576953,0.38756705964947596,-0.38756705964947596,0.9218415125576953,794.955451033168,51.70825080003675)" fill="none" stroke="#ffbd9b"></use><use xlink:href="#bbburst-shape-10" width="37.67277484400601" opacity="0.27268131158346187" transform="matrix(0.824878173623,-0.5653105329643026,0.5653105329643026,0.824878173623,-9.732548182339173,-200.14667129238848)" fill="none" stroke="#00a19d"></use><use xlink:href="#bbburst-shape-10" width="25.10626426744937" opacity="0.58463681925002" transform="matrix(0.9449446918711528,0.32723008618483107,-0.32723008618483107,0.9449446918711528,617.2463836859217,-141.11448881738804)" fill="none" stroke="#ffbd9b"></use><use xlink:href="#bbburst-shape-6" width="10.211851227256217" opacity="0.942415635074421" transform="matrix(0.9637023669823037,-0.2669789277690378,0.2669789277690378,0.9637023669823037,293.3406551080692,-9.533224717591281)" fill="#00a19d"></use><use xlink:href="#bbburst-shape-6" width="33.99639133399315" opacity="0.2672252683591745" transform="matrix(0.9076589572961123,-0.41970849078870703,0.41970849078870703,0.9076589572961123,383.047900944017,-240.63688076689817)" fill="#2c2891"></use><use xlink:href="#bbburst-shape-6" width="28.905496314646385" opacity="0.14224431927889947" transform="matrix(0.9950629690240083,-0.0992455927340125,0.0992455927340125,0.9950629690240083,229.21937488712476,371.33503209821697)" fill="#00a19d"></use><use xlink:href="#bbburst-shape-12" width="29.871496951050304" opacity="0.5404357836121836" transform="matrix(0.7828706616927822,-0.6221844799259344,0.6221844799259344,0.7828706616927822,303.57504749195687,-29.65284453152816)" fill="none" stroke="#00a19d"></use><use xlink:href="#bbburst-shape-12" width="27.59252920082423" opacity="0.3358469793712706" transform="matrix(0.835945665994458,0.5488122115123553,-0.5488122115123553,0.835945665994458,692.5780812159427,344.6657057741931)" fill="none" stroke="#ffa6d5"></use><use xlink:href="#bbburst-shape-6" width="21.333007212152115" opacity="0.6021883932842107" transform="matrix(0.7204896753739143,-0.6934656643840355,0.6934656643840355,0.7204896753739143,145.89540198248204,295.51767719525066)" fill="#2c2891"></use><use xlink:href="#bbburst-shape-10" width="21.030564124895193" opacity="0.5982382169539262" transform="matrix(0.9859732799812455,-0.16690323892310882,0.16690323892310882,0.9859732799812455,482.44525269960724,92.34844885526286)" fill="none" stroke="#2c2891"></use><use xlink:href="#bbburst-shape-12" width="22.986839294808107" opacity="0.5570074742453366" transform="matrix(0.7322155541026995,0.6810729640281405,-0.6810729640281405,0.7322155541026995,801.0769870198455,244.03271439900374)" fill="none" stroke="#ffa6d5"></use><use xlink:href="#bbburst-shape-8" width="42.57865864363009" opacity="0.16938611961509575" transform="matrix(0.9221963044007845,-0.386722091623346,0.386722091623346,0.9221963044007845,-138.6808720748205,122.7280749987878)" fill="none" stroke="#ffbd9b"></use><use xlink:href="#bbburst-shape-8" width="22.428659550559086" opacity="0.618223748733767" transform="matrix(0.9537688516638323,-0.3005411412699675,0.3005411412699675,0.9537688516638323,98.02912107830537,37.799730197372185)" fill="none" stroke="#2c2891"></use><use xlink:href="#bbburst-shape-10" width="21.203746768475167" opacity="0.16740572393203168" transform="matrix(0.9223552992849549,0.3863427259325084,-0.3863427259325084,0.9223552992849549,604.651234316662,-342.88740044334827)" fill="none" stroke="#00a19d"></use><use xlink:href="#bbburst-shape-8" width="9.090459483553406" opacity="0.8871602506185265" transform="matrix(0.7372234365223562,0.6756490247474405,-0.6756490247474405,0.7372234365223562,710.6193968805385,127.88096981032515)" fill="none" stroke="#00a19d"></use><use xlink:href="#bbburst-shape-6" width="27.493830146681486" opacity="0.15772611264955194" transform="matrix(0.729737643203916,0.6837272644053286,-0.6837272644053286,0.729737643203916,545.96356946706,-261.6457816128607)" fill="#ff5c58"></use><use xlink:href="#bbburst-shape-12" width="29.278225364171973" opacity="0.3194442430264769" transform="matrix(0.8509662100090802,0.525220438885219,-0.525220438885219,0.8509662100090802,416.5198483824406,298.8165482374763)" fill="none" stroke="#2c2891"></use><use xlink:href="#bbburst-shape-4" width="30.65893432624797" opacity="0.037757832670947455" transform="matrix(0.9634172208754598,-0.26800607926053766,0.26800607926053766,0.9634172208754598,526.0115192361933,373.7402619414771)" fill="#ff5c58"></use><use xlink:href="#bbburst-shape-10" width="27.12808720248516" opacity="0.46271125140712743" transform="matrix(0.8369311995772692,-0.547308109910819,0.547308109910819,0.8369311995772692,384.69226823584637,183.31482641485547)" fill="none" stroke="#ff5c58"></use><use xlink:href="#bbburst-shape-8" width="12.912845528870527" opacity="0.900612153462256" transform="matrix(0.9974020068458929,-0.07203635706908988,0.07203635706908988,0.9974020068458929,321.126088516851,11.383653639229124)" fill="none" stroke="#00a19d"></use><use xlink:href="#bbburst-shape-10" width="20.268475621368864" opacity="0.5572080539895865" transform="matrix(0.913796198274079,-0.40617300257382966,0.40617300257382966,0.913796198274079,193.5688673895331,-157.61364647263179)" fill="none" stroke="#ffa6d5"></use><use xlink:href="#bbburst-shape-4" width="24.205904384540503" opacity="0.6916590377904138" transform="matrix(0.9738011749503294,-0.22740112503098592,0.22740112503098592,0.9738011749503294,398.2860237512993,108.36353635382449)" fill="#ffa6d5"></use><use xlink:href="#bbburst-shape-6" width="12.77053726686603" opacity="0.9404439999101846" transform="matrix(0.9327090439078491,0.3606297816494167,-0.3606297816494167,0.9327090439078491,515.2886624764042,10.869704056313651)" fill="#ffa6d5"></use><use xlink:href="#bbburst-shape-1" width="30.652838233043937" opacity="0.4130310861048885" transform="matrix(0.9951442062429817,-0.09842768300140858,0.09842768300140858,0.9951442062429817,517.8232062864416,-196.58846660103816)" fill="#00a19d"></use><use xlink:href="#bbburst-shape-6" width="48.4812317785823" opacity="-0.08030998294259506" transform="matrix(0.9963537999619507,-0.08531767285493076,0.08531767285493076,0.9963537999619507,-2.9107759469437227,-339.3440924523075)" fill="#ffa6d5"></use><use xlink:href="#bbburst-shape-12" width="12.852595783257025" opacity="0.8962807012410775" transform="matrix(0.9623422905394569,-0.27184060741410887,0.27184060741410887,0.9623422905394569,270.38775021275114,-27.515600269439858)" fill="none" stroke="#ffa6d5"></use><use xlink:href="#bbburst-shape-6" width="34.419508422839854" opacity="0.38303178558464235" transform="matrix(0.8444783364995359,-0.535589711610461,0.535589711610461,0.8444783364995359,-33.58264416999492,-116.0114206481266)" fill="#2c2891"></use><use xlink:href="#bbburst-shape-12" width="18.3760905109944" opacity="0.6415904256940741" transform="matrix(0.8372102892412107,0.5468810945613757,-0.5468810945613757,0.8372102892412107,685.1691895626736,203.32232491344087)" fill="none" stroke="#ffa6d5"></use><use xlink:href="#bbburst-shape-1" width="37.62197864752072" opacity="0.3842571712194107" transform="matrix(0.7811080316097038,-0.6243959024167391,0.6243959024167391,0.7811080316097038,381.1603113594359,-28.976865627751238)" fill="#ffa6d5"></use><use xlink:href="#bbburst-shape-10" width="35.584498533779524" opacity="0.19252787887591494" transform="matrix(0.9978480297739717,-0.06556911983703015,0.06556911983703015,0.9978480297739717,362.0044821081521,365.34055349925376)" fill="none" stroke="#ffa6d5"></use><use xlink:href="#bbburst-shape-4" width="15.110556977609265" opacity="0.7844984670005262" transform="matrix(0.9997499723252483,0.02236051957502801,-0.02236051957502801,0.9997499723252483,315.0014396229401,-44.11449756858724)" fill="#00a19d"></use><use xlink:href="#bbburst-shape-4" width="33.664776489458276" opacity="0.3700478694887609" transform="matrix(0.9627699120289357,-0.27032220865440454,0.27032220865440454,0.9627699120289357,6.975847902240943,109.81296437137718)" fill="#2c2891"></use><use xlink:href="#bbburst-shape-12" width="31.518499787855752" opacity="0.6052310449255484" transform="matrix(0.9816196634054364,-0.1908476785706284,0.1908476785706284,0.9816196634054364,157.89552766560277,105.02732025753181)" fill="none" stroke="#ffbd9b"></use><use xlink:href="#bbburst-shape-4" width="11.881291402356531" opacity="0.9943856700177941" transform="matrix(0.9207948387403605,-0.39004725989181566,0.39004725989181566,0.9207948387403605,240.41202567278654,35.6779117220309)" fill="#00a19d"></use><use xlink:href="#bbburst-shape-6" width="20.74013297100483" opacity="0.7629258097833502" transform="matrix(0.7936772727982193,0.6083390392236726,-0.6083390392236726,0.7936772727982193,687.8102795206154,168.9758120014552)" fill="#2c2891"></use><use xlink:href="#bbburst-shape-6" width="11.230934027631653" opacity="0.900197747980654" transform="matrix(0.8342059151602559,0.5514530724473661,-0.5514530724473661,0.8342059151602559,609.4483746776265,107.66675291765802)" fill="#2c2891"></use><use xlink:href="#bbburst-shape-6" width="27.325605771923883" opacity="0.1923770932419726" transform="matrix(0.9502269212260884,-0.3115586592877643,0.3115586592877643,0.9502269212260884,-98.70547399588057,-16.929361258110873)" fill="#ffa6d5"></use><use xlink:href="#bbburst-shape-10" width="38.480696193551694" opacity="0.1925016032022624" transform="matrix(0.7181512922133801,-0.695887003393692,0.695887003393692,0.7181512922133801,-161.1366453938825,-118.20527409029071)" fill="none" stroke="#00a19d"></use><use xlink:href="#bbburst-shape-12" width="16.702281835195983" opacity="0.7818951265323009" transform="matrix(0.7725570924633652,0.6349453038526636,-0.6349453038526636,0.7725570924633652,743.0474368816127,63.01793046450041)" fill="none" stroke="#00a19d"></use><use xlink:href="#bbburst-shape-1" width="33.378419786821055" opacity="0.532580440321563" transform="matrix(0.9999666521489601,-0.008166675578262471,0.008166675578262471,0.9999666521489601,202.92850058596127,-113.26281990643133)" fill="#ffbd9b"></use><use xlink:href="#bbburst-shape-4" width="19.930028848478266" opacity="0.7157035793818933" transform="matrix(0.8620826633557813,0.5067676800481682,-0.5067676800481682,0.8620826633557813,635.1262909407424,-71.04657624599542)" fill="#00a19d"></use><use xlink:href="#bbburst-shape-8" width="10.706505663853763" opacity="0.8615443856319421" transform="matrix(0.9933453389789939,-0.11517394466070717,0.11517394466070717,0.9933453389789939,301.0836013101439,43.56355239715822)" fill="none" stroke="#2c2891"></use><use xlink:href="#bbburst-shape-12" width="10.38040386493365" opacity="0.8568877142540697" transform="matrix(0.9998909010166795,-0.014771122640233706,0.014771122640233706,0.9998909010166795,424.07463199491144,54.04859353282109)" fill="none" stroke="#ffa6d5"></use><use xlink:href="#bbburst-shape-10" width="30.761397468974046" opacity="0.0843206936605001" transform="matrix(0.9246355923969934,0.38085301793823423,-0.38085301793823423,0.9246355923969934,728.4707916105195,-341.165629239194)" fill="none" stroke="#ff5c58"></use><use xlink:href="#bbburst-shape-8" width="44.21097529706911" opacity="0.05452076255782479" transform="matrix(0.8233043751849458,0.5676001284366716,-0.5676001284366716,0.8233043751849458,250.62177216712084,-171.43444727615662)" fill="none" stroke="#00a19d"></use><use xlink:href="#bbburst-shape-12" width="18.85993145739861" opacity="0.7696006191651894" transform="matrix(0.8775556721326583,0.47947475669507184,-0.47947475669507184,0.8775556721326583,516.9136636543101,-35.01939356536246)" fill="none" stroke="#ffa6d5"></use><use xlink:href="#bbburst-shape-6" width="21.81626793996077" opacity="0.6414894232482335" transform="matrix(0.9860845022580246,-0.1662448627974528,0.1662448627974528,0.9860845022580246,259.8259076650173,-141.17445726438106)" fill="#2c2891"></use><use xlink:href="#bbburst-shape-4" width="15.025199629428464" opacity="0.8490817877182187" transform="matrix(0.9068751820248272,0.4213993405635995,-0.4213993405635995,0.9068751820248272,619.9436375642881,-0.898574953964328)" fill="#ffa6d5"></use><use xlink:href="#bbburst-shape-6" width="26.018117332993107" opacity="0.41409903187382224" transform="matrix(0.9994067590306691,0.03444023814978859,-0.03444023814978859,0.9994067590306691,568.7289488940495,203.02729996848268)" fill="#ffa6d5"></use><use xlink:href="#bbburst-shape-4" width="16.645096688403022" opacity="0.8222736410440463" transform="matrix(0.9595727351525971,-0.2814607716037239,0.2814607716037239,0.9595727351525971,294.3638562043439,97.09881977159313)" fill="#ff5c58"></use><use xlink:href="#bbburst-shape-10" width="9.718404042528613" opacity="0.8328578565071603" transform="matrix(0.9949458364611744,0.10041305945231455,-0.10041305945231455,0.9949458364611744,508.2247381087585,20.06971986547262)" fill="none" stroke="#ffa6d5"></use><use xlink:href="#bbburst-shape-4" width="24.86567705169074" opacity="0.5641734815559984" transform="matrix(0.8818440149070889,-0.47154123189021974,0.47154123189021974,0.8818440149070889,135.10989665556176,238.06939636485123)" fill="#ff5c58"></use><use xlink:href="#bbburst-shape-8" width="23.706826991092633" opacity="0.5827588949998352" transform="matrix(0.9802731155945024,0.19764771398285208,-0.19764771398285208,0.9802731155945024,653.5556431473253,30.327795346525022)" fill="none" stroke="#2c2891"></use><use xlink:href="#bbburst-shape-8" width="38.144501883157226" opacity="0.060055084382726" transform="matrix(0.9257101567912196,0.37823366536253183,-0.37823366536253183,0.9257101567912196,300.1464880430875,-330.1870722446612)" fill="none" stroke="#2c2891"></use><use xlink:href="#bbburst-shape-1" width="20.150472705688202" opacity="0.7073541935461365" transform="matrix(0.8649972185136128,0.5017766554590929,-0.5017766554590929,0.8649972185136128,538.9130606510644,169.49209482407076)" fill="#00a19d"></use><use xlink:href="#bbburst-shape-12" width="21.860845452754074" opacity="0.6727908116100448" transform="matrix(0.7072731616329939,-0.7069403615819858,0.7069403615819858,0.7072731616329939,255.90830199537527,109.45334114155571)" fill="none" stroke="#ffa6d5"></use><use xlink:href="#bbburst-shape-10" width="30.30188413689225" opacity="0.4127826727034557" transform="matrix(0.8258833757299393,-0.5638409790826842,0.5638409790826842,0.8258833757299393,-50.91577317874135,234.76129913463058)" fill="none" stroke="#00a19d"></use><use xlink:href="#bbburst-shape-4" width="29.521846216764306" opacity="0.491986519456054" transform="matrix(0.8166410091175134,-0.5771459626710815,0.5771459626710815,0.8166410091175134,160.99285595614685,310.4576612400574)" fill="#00a19d"></use><use xlink:href="#bbburst-shape-8" width="28.534543398579686" opacity="0.1880752698049205" transform="matrix(0.8589481868768793,-0.512062508157863,0.512062508157863,0.8589481868768793,547.6623116286916,42.38220991730145)" fill="none" stroke="#00a19d"></use><use xlink:href="#bbburst-shape-4" width="15.918797630776803" opacity="0.7975880215225686" transform="matrix(0.8111114798485354,0.5848915859011129,-0.5848915859011129,0.8111114798485354,635.705027897229,-19.80264633828392)" fill="#ffa6d5"></use><use xlink:href="#bbburst-shape-4" width="22.442102036745524" opacity="0.6773449855805636" transform="matrix(0.8621088661181808,-0.5067231028485129,0.5067231028485129,0.8621088661181808,56.86866280557635,-2.215110209162617)" fill="#ffa6d5"></use><use xlink:href="#bbburst-shape-12" width="40.00442124843977" opacity="0.07440411445573347" transform="matrix(0.9733295698448051,0.2294113084957381,-0.2294113084957381,0.9733295698448051,243.22751975018713,353.8701828402393)" fill="none" stroke="#00a19d"></use><use xlink:href="#bbburst-shape-1" width="14.687337055602889" opacity="0.751723896161949" transform="matrix(0.8282144588856512,0.5604112865501087,-0.5604112865501087,0.8282144588856512,521.8059280123078,121.317070734195)" fill="#ffbd9b"></use><use xlink:href="#bbburst-shape-12" width="27.028257091680118" opacity="0.5266544810587129" transform="matrix(0.9955575731244947,-0.09415475874572887,0.09415475874572887,0.9955575731244947,555.1049577237962,-50.31289689000732)" fill="none" stroke="#ffa6d5"></use><use xlink:href="#bbburst-shape-10" width="13.059347112677676" opacity="0.8259262819620994" transform="matrix(0.8757404855794715,-0.48278214747133247,0.48278214747133247,0.8757404855794715,123.01933596852098,47.49545763598553)" fill="none" stroke="#2c2891"></use><use xlink:href="#bbburst-shape-4" width="9.291869752251568" opacity="0.878228751965654" transform="matrix(0.7168871041659731,0.6971892712029677,-0.6971892712029677,0.7168871041659731,730.1400740233464,105.37928151365725)" fill="#2c2891"></use><use xlink:href="#bbburst-shape-1" width="43.16975578549659" opacity="-0.08200632754529047" transform="matrix(0.8690334003537038,0.4947534224941543,-0.4947534224941543,0.8690334003537038,236.28943773461486,387.507771427077)" fill="#ffa6d5"></use><use xlink:href="#bbburst-shape-10" width="10.863490621633023" opacity="0.8422131569752106" transform="matrix(0.9932281589233172,0.11618013738069803,-0.11618013738069803,0.9932281589233172,424.17958053714483,71.04182169784042)" fill="none" stroke="#ffa6d5"></use><use xlink:href="#bbburst-shape-6" width="33.08884638369227" opacity="0.434581266756796" transform="matrix(0.9998894984807709,-0.014865760252082898,0.014865760252082898,0.9998894984807709,472.75206751852534,-235.65032424150434)" fill="#ffa6d5"></use><use xlink:href="#bbburst-shape-10" width="37.05341902449758" opacity="0.042752851217046306" transform="matrix(0.8511240380443479,-0.5249646386787241,0.5249646386787241,0.8511240380443479,-187.1080892954904,303.7516585000004)" fill="none" stroke="#2c2891"></use><use xlink:href="#bbburst-shape-8" width="9.494872875933126" opacity="0.9334932474716812" transform="matrix(0.7833553993715974,-0.6215740649957696,0.6215740649957696,0.7833553993715974,163.33556567735056,115.0978549694525)" fill="none" stroke="#ffa6d5"></use><use xlink:href="#bbburst-shape-8" width="11.625274720755264" opacity="0.878547622192482" transform="matrix(0.9507378313140464,0.3099960904725473,-0.3099960904725473,0.9507378313140464,551.5827706264799,-25.579190689418738)" fill="none" stroke="#2c2891"></use><use xlink:href="#bbburst-shape-10" width="11.192648473928546" opacity="0.8695612192446107" transform="matrix(0.8334828024793354,0.5525453990136858,-0.5525453990136858,0.8334828024793354,628.2964468219822,6.045002725101028)" fill="none" stroke="#2c2891"></use><use xlink:href="#bbburst-shape-10" width="17.415675881997196" opacity="0.7257093099362962" transform="matrix(0.7764949390282444,0.6301234876304193,-0.6301234876304193,0.7764949390282444,522.6412291231901,70.0230902547799)" fill="none" stroke="#2c2891"></use><use xlink:href="#bbburst-shape-4" width="21.44994004177727" opacity="0.5557235810892234" transform="matrix(0.7500591071503145,0.6613708005203079,-0.6613708005203079,0.7500591071503145,699.8035645297437,-102.27853190940758)" fill="#2c2891"></use><use xlink:href="#bbburst-shape-4" width="29.427980253391343" opacity="0.5178117996423179" transform="matrix(0.9805312314381422,0.1963631945513221,-0.1963631945513221,0.9805312314381422,256.72130082581873,68.73088364006634)" fill="#ffa6d5"></use><use xlink:href="#bbburst-shape-10" width="32.8063862143458" opacity="0.18851993003125678" transform="matrix(0.711028072616797,-0.7031636224598389,0.7031636224598389,0.711028072616797,-160.84936830831757,375.24522110356594)" fill="none" stroke="#00a19d"></use><use xlink:href="#bbburst-shape-1" width="30.124518388973065" opacity="0.15015323984401208" transform="matrix(0.7782753104597201,0.6279231968392522,-0.6279231968392522,0.7782753104597201,766.6007110314847,439.9270378803163)" fill="#00a19d"></use><use xlink:href="#bbburst-shape-1" width="25.135081527729657" opacity="0.6627635955797142" transform="matrix(0.7679072709227053,0.6405610222797223,-0.6405610222797223,0.7679072709227053,540.7744107458252,-24.004220121497553)" fill="#ffa6d5"></use><use xlink:href="#bbburst-shape-4" width="35.671046009908316" opacity="0.05503945931431997" transform="matrix(0.980261117300031,0.19770721258895688,-0.19770721258895688,0.980261117300031,817.1472181996387,-228.84481822627802)" fill="#00a19d"></use><use xlink:href="#bbburst-shape-6" width="42.50801266096363" opacity="0.10157117098084234" transform="matrix(0.8955435475211141,0.4449738806866063,-0.4449738806866063,0.8955435475211141,824.8062549162207,-272.2662666818438)" fill="#ffa6d5"></use><use xlink:href="#bbburst-shape-8" width="16.44058305425795" opacity="0.726038070386072" transform="matrix(0.9681120895848285,-0.2505174285348165,0.2505174285348165,0.9681120895848285,204.85482289914702,102.18233175171957)" fill="none" stroke="#ffa6d5"></use><use xlink:href="#bbburst-shape-4" width="16.98130868473872" opacity="0.7200882572510043" transform="matrix(0.7902106809037289,-0.6128352794884324,0.6128352794884324,0.7902106809037289,168.97717495733727,213.3604525289354)" fill="#00a19d"></use><use xlink:href="#bbburst-shape-4" width="12.101125004785665" opacity="0.8742027066708129" transform="matrix(0.8875811851130537,-0.4606513213193978,0.4606513213193978,0.8875811851130537,157.50883296518262,27.520653845211598)" fill="#2c2891"></use><use xlink:href="#bbburst-shape-4" width="29.757300908164233" opacity="0.28005971037297106" transform="matrix(0.8083333754466494,0.5887250242167613,-0.5887250242167613,0.8083333754466494,508.7806372927086,370.9309791637338)" fill="#ff5c58"></use><use xlink:href="#bbburst-shape-10" width="21.484088100373963" opacity="0.6424471030032487" transform="matrix(0.953142625679768,-0.30252129695655733,0.30252129695655733,0.953142625679768,247.93769086410893,181.53937345959713)" fill="none" stroke="#ffa6d5"></use><use xlink:href="#bbburst-shape-1" width="27.741426381401283" opacity="0.5261129337763703" transform="matrix(0.9649303737663734,0.26250594999558957,-0.26250594999558957,0.9649303737663734,366.8002282202895,-162.48931733873115)" fill="#2c2891"></use><use xlink:href="#bbburst-shape-10" width="14.526680549403292" opacity="0.6996078460595387" transform="matrix(0.8255547848108094,-0.5643219801460672,0.5643219801460672,0.8255547848108094,295.49985888456945,119.55508231199337)" fill="none" stroke="#ffbd9b"></use><use xlink:href="#bbburst-shape-6" width="30.200896162427696" opacity="0.3207368495327907" transform="matrix(0.7977978405028646,-0.6029250415175719,0.6029250415175719,0.7977978405028646,-158.6877289595809,100.97497514548627)" fill="#00a19d"></use><use xlink:href="#bbburst-shape-1" width="19.737563391919004" opacity="0.6639538602884079" transform="matrix(0.963702461193251,-0.26697858769959537,0.26697858769959537,0.963702461193251,290.40514891897396,-133.89396064796375)" fill="#ffa6d5"></use><use xlink:href="#bbburst-shape-6" width="42.64485853018531" opacity="0.17172117616931437" transform="matrix(0.9584659866852033,0.2852068589069337,-0.2852068589069337,0.9584659866852033,845.0659251628243,-113.67734348673002)" fill="#ff5c58"></use><use xlink:href="#bbburst-shape-8" width="23.656800019463944" opacity="0.506864687674879" transform="matrix(0.9029157221581413,-0.4298176342120484,0.4298176342120484,0.9029157221581413,78.87075375266073,217.28459952916324)" fill="none" stroke="#00a19d"></use><use xlink:href="#bbburst-shape-12" width="28.06085694108679" opacity="0.30426866889591553" transform="matrix(0.7682975511064104,-0.6400928627659371,0.6400928627659371,0.7682975511064104,204.17017711552188,-203.29490527323708)" fill="none" stroke="#ffa6d5"></use><use xlink:href="#bbburst-shape-8" width="12.03761071368543" opacity="0.8114468995722808" transform="matrix(0.8427595990547732,0.5382901245620599,-0.5382901245620599,0.8427595990547732,528.8665140500552,83.67914343588109)" fill="none" stroke="#ffbd9b"></use><use xlink:href="#bbburst-shape-6" width="32.19404085213503" opacity="0.29802987364765476" transform="matrix(0.7974323612932042,-0.6034083436300368,0.6034083436300368,0.7974323612932042,398.00695778599993,280.94103470660605)" fill="#ff5c58"></use><use xlink:href="#bbburst-shape-10" width="36.714943107144215" opacity="0.3495276310900851" transform="matrix(0.9383327081621095,-0.3457336095799213,0.3457336095799213,0.9383327081621095,532.6340726357964,-20.450311516485158)" fill="none" stroke="#ffa6d5"></use><use xlink:href="#bbburst-shape-8" width="34.260200200713825" opacity="0.11143873108694546" transform="matrix(0.9895910597920633,-0.14390807614453424,0.14390807614453424,0.9895910597920633,687.9703199645207,175.40803832048385)" fill="none" stroke="#ffa6d5"></use><use xlink:href="#bbburst-shape-4" width="27.840211674871114" opacity="0.43391028040114643" transform="matrix(0.947186740372037,0.3206825203583683,-0.3206825203583683,0.947186740372037,426.82296123793003,255.64839623066052)" fill="#ff5c58"></use><use xlink:href="#bbburst-shape-6" width="25.00958480956668" opacity="0.34730609184092587" transform="matrix(0.9775628379621961,-0.21064400735671826,0.21064400735671826,0.9775628379621961,286.53657763191916,304.83012574688127)" fill="#00a19d"></use><use xlink:href="#bbburst-shape-4" width="25.094829265434477" opacity="0.6360523543633081" transform="matrix(0.9999742637287712,-0.007174390573560993,0.007174390573560993,0.9999742637287712,285.0445315626358,130.17984301712272)" fill="#00a19d"></use><use xlink:href="#bbburst-shape-1" width="9.950163881908411" opacity="0.9366286881545629" transform="matrix(0.9196779925669323,0.3926733884388623,-0.3926733884388623,0.9196779925669323,579.7775683711761,21.907530860071063)" fill="#00a19d"></use><use xlink:href="#bbburst-shape-1" width="29.926684145968355" opacity="0.4894466638485794" transform="matrix(0.8743854162102819,-0.48523205161940003,0.48523205161940003,0.8743854162102819,281.86104502964156,269.34262479396494)" fill="#00a19d"></use><use xlink:href="#bbburst-shape-6" width="34.90245197065046" opacity="0.09321761035781273" transform="matrix(0.9751582724894949,0.22150924042870987,-0.22150924042870987,0.9751582724894949,789.2229379169311,262.2221897221373)" fill="#ffa6d5"></use><use xlink:href="#bbburst-shape-8" width="26.240644472054708" opacity="0.30222933541714403" transform="matrix(0.9994775563563261,0.032320494117310986,-0.032320494117310986,0.9994775563563261,693.2771045629769,111.47125599918769)" fill="none" stroke="#ffa6d5"></use><use xlink:href="#bbburst-shape-4" width="16.405563776333572" opacity="0.7630119432486033" transform="matrix(0.9856822768436831,-0.16861331239333632,0.16861331239333632,0.9856822768436831,308.4511944272419,112.55929010737896)" fill="#2c2891"></use><use xlink:href="#bbburst-shape-12" width="16.69402431360558" opacity="0.7392174616179117" transform="matrix(0.9499510005296375,0.31239893820680714,-0.31239893820680714,0.9499510005296375,484.848992952024,-95.46743602276825)" fill="none" stroke="#ffbd9b"></use><use xlink:href="#bbburst-shape-10" width="15.767248675012045" opacity="0.7894446335038254" transform="matrix(0.9977470197211347,-0.0670886327002846,0.0670886327002846,0.9977470197211347,442.24410938352156,56.719798726580734)" fill="none" stroke="#ffa6d5"></use><use xlink:href="#bbburst-shape-6" width="9.676550398873303" opacity="0.9418078291120219" transform="matrix(0.9396834818172103,0.3420452513920995,-0.3420452513920995,0.9396834818172103,515.0692331625169,42.215394221618624)" fill="#2c2891"></use><use xlink:href="#bbburst-shape-4" width="46.00002870258739" opacity="0.24867614191077902" transform="matrix(0.8997505673374977,0.43640453317518485,-0.43640453317518485,0.8997505673374977,518.9529525509824,-306.1899994501253)" fill="#ff5c58"></use><use xlink:href="#bbburst-shape-1" width="38.0042712295763" opacity="0.1842707001941586" transform="matrix(0.9756660085962584,0.219262034264589,-0.219262034264589,0.9756660085962584,128.17786371888917,-130.33156150444586)" fill="#00a19d"></use><use xlink:href="#bbburst-shape-6" width="33.6003260492223" opacity="0.21804915960185456" transform="matrix(0.9312834530520461,-0.364295388485028,0.364295388485028,0.9312834530520461,585.9147452793801,90.31442215209017)" fill="#ffbd9b"></use><use xlink:href="#bbburst-shape-10" width="29.665928606802353" opacity="0.465145183487644" transform="matrix(0.9445351047247017,0.328410468686211,-0.328410468686211,0.9445351047247017,277.04188007702294,3.927355981879032)" fill="none" stroke="#ffbd9b"></use><use xlink:href="#bbburst-shape-10" width="22.34920201954692" opacity="0.5741892933407741" transform="matrix(0.9089581674363828,-0.41688733472089634,0.41688733472089634,0.9089581674363828,37.28228692264972,-5.7492993491104585)" fill="none" stroke="#2c2891"></use><use xlink:href="#bbburst-shape-6" width="42.372861911314075" opacity="0.3791946845708837" transform="matrix(0.806976389347497,-0.5905837002793736,0.5905837002793736,0.806976389347497,-113.36147025632778,-12.390810672391467)" fill="#00a19d"></use><use xlink:href="#bbburst-shape-10" width="40.89722729088847" opacity="-0.09381508093890978" transform="matrix(0.9789610470438763,-0.20404722093367827,0.20404722093367827,0.9789610470438763,643.4926727533264,-338.35735673112384)" fill="none" stroke="#ff5c58"></use><use xlink:href="#bbburst-shape-6" width="12.469680465891607" opacity="0.7624906616138935" transform="matrix(0.9019028967993371,0.4319388437556459,-0.4319388437556459,0.9019028967993371,673.2179153376495,49.7078520953757)" fill="#00a19d"></use><use xlink:href="#bbburst-shape-4" width="14.57055990540729" opacity="0.7079962749856072" transform="matrix(0.7160559387738743,0.698042901651944,-0.698042901651944,0.7160559387738743,547.2594262426247,143.22123443709233)" fill="#00a19d"></use><use xlink:href="#bbburst-shape-6" width="13.972783103386432" opacity="0.78932791062135" transform="matrix(0.999951246326441,0.009874460501593022,-0.009874460501593022,0.999951246326441,448.61181590018055,-79.54760151403542)" fill="#00a19d"></use><use xlink:href="#bbburst-shape-8" width="39.571442480437405" opacity="0.21274709936313807" transform="matrix(0.9916975008710176,0.12859263884911148,-0.12859263884911148,0.9916975008710176,115.27679415644518,159.85533876904077)" fill="none" stroke="#ffa6d5"></use><use xlink:href="#bbburst-shape-8" width="14.967838671028389" opacity="0.8043911148686267" transform="matrix(0.9983775341481085,-0.05694119166598491,0.05694119166598491,0.9983775341481085,320.509490935756,74.03691792285406)" fill="none" stroke="#ff5c58"></use><use xlink:href="#bbburst-shape-4" width="23.28356736650937" opacity="0.6544040250695344" transform="matrix(0.9840033099424986,-0.1781501782828379,0.1781501782828379,0.9840033099424986,457.23240854421425,-59.34084123022086)" fill="#2c2891"></use><use xlink:href="#bbburst-shape-4" width="16.493576164091333" opacity="0.7640098483665148" transform="matrix(0.9985936887147401,0.05301551526759725,-0.05301551526759725,0.9985936887147401,501.4585017317665,-58.573589229935635)" fill="#ffa6d5"></use><use xlink:href="#bbburst-shape-6" width="13.6358352156072" opacity="0.8243053513132841" transform="matrix(0.8339987623892912,-0.551766313155425,0.551766313155425,0.8339987623892912,149.18485138891776,-5.03343847627616)" fill="#00a19d"></use><use xlink:href="#bbburst-shape-8" width="35.52027163863843" opacity="-0.09526808341126136" transform="matrix(0.9097930781474186,-0.41506210975593155,0.41506210975593155,0.9097930781474186,572.6058563468821,385.57477949909514)" fill="none" stroke="#00a19d"></use><use xlink:href="#bbburst-shape-6" width="30.70442394020791" opacity="0.4148029529091257" transform="matrix(0.9244366102268051,-0.3813357492713921,0.3813357492713921,0.9244366102268051,139.24187923761644,-209.89817259827282)" fill="#00a19d"></use></svg>